<svg xmlns="http://www.w3.org/2000/svg" viewBox="0 0 300 180"><defs><filter id="s"><feDropShadow dx="0" dy="8" stdDeviation="7" flood-opacity=".45"/></filter></defs><g filter="url(#s)" font-family="Arial" font-weight="900"><g transform="translate(60 42) rotate(-10 55 55)"><rect width="108" height="116" rx="12" fill="#f6efe1" stroke="#19a8ef" stroke-width="6"/><rect width="108" height="25" rx="8" fill="#19a8ef"/><text x="54" y="19" text-anchor="middle" fill="#fff" font-size="15">BINGO</text><g fill="#26344b" font-size="14" text-anchor="middle"><text x="22" y="52">8</text><text x="54" y="52">24</text><text x="86" y="52">41</text><text x="22" y="82">12</text><text x="54" y="82">37</text><text x="86" y="82">69</text></g></g><g transform="translate(118 28) rotate(6 55 55)"><rect width="108" height="116" rx="12" fill="#fff2dd" stroke="#ff477e" stroke-width="6"/><rect width="108" height="25" rx="8" fill="#ff477e"/><text x="54" y="19" text-anchor="middle" fill="#fff" font-size="15">BINGO</text><g fill="#5b2437" font-size="14" text-anchor="middle"><text x="22" y="52">3</text><text x="54" y="52">18</text><text x="86" y="52">55</text><text x="22" y="82">15</text><text x="54" y="82">33</text><text x="86" y="82">72</text></g></g><circle cx="230" cy="135" r="25" fill="#ffbd2e" stroke="#fff0a0" stroke-width="4"/><path d="M230 120l5 10 11 2-8 8 2 11-10-5-10 5 2-11-8-8 11-2z" fill="#fff"/></g></svg>
